<svg width="132" height="36" viewBox="0 0 132 36" fill="none" xmlns="http://www.w3.org/2000/svg">
<path d="M11.0835 14.5873C15.4042 12.5209 18.7856 9.01423 20.7268 4.63093C19.4744 3.31594 17.8463 2.37666 16.093 1.81309L15.1537 1.5C15.0911 1.62524 15.0285 1.8131 15.0285 1.93834C13.5256 6.1964 10.4573 9.64042 6.32448 11.5816C3.44403 12.9592 1.31499 15.4639 0.313093 18.4696L0 19.4089C0.125237 19.4715 0.313096 19.5341 0.438333 19.5341C1.62809 19.9725 2.81784 20.536 3.94497 21.2249C5.51044 18.407 8.01518 16.0275 11.0835 14.5873Z" fill="#1570EF"/>
<path d="M29.2429 14.8378C26.926 18.3444 23.7325 21.1622 19.7875 23.0408C16.594 24.5437 14.1518 27.3615 13.0247 30.7429L12.7116 31.8074C13.9014 32.8719 15.3416 33.686 16.9071 34.1869L17.8463 34.5C17.9089 34.3748 17.9716 34.1869 17.9716 34.0617C19.4744 29.8036 22.5427 26.3596 26.6756 24.4184C29.556 23.0408 31.7477 20.5361 32.6869 17.5304L33 16.5911C31.685 16.2154 30.4327 15.5892 29.2429 14.8378Z" fill="#1570EF"/>
<path d="M10.2069 28.5511C11.7723 24.794 14.6528 21.7257 18.3473 19.9724C21.7287 18.3443 24.5465 15.8395 26.4877 12.7712C25.0475 11.3936 23.8577 9.82815 22.9811 7.94959C20.6642 12.2077 17.0323 15.6517 12.5864 17.7807C10.019 18.9705 7.9526 21.0369 6.70023 23.5416C8.07783 24.8566 9.20497 26.4847 10.0816 28.3006C10.0816 28.3006 10.1442 28.4259 10.2069 28.5511Z" fill="#2E90FA"/>
<path d="M40.4625 25.5H51.015V22.575H43.86V9.75H40.4625V25.5Z" fill="#1570EF"/>
<path d="M62.0398 14.16H58.8898V20.37C58.8898 21.81 57.9223 22.89 56.5498 22.89C55.2673 22.89 54.3673 21.9 54.3673 20.5275V14.16H51.2398V21.225C51.2398 23.8125 52.9048 25.68 55.4473 25.68C56.9998 25.68 58.2598 25.005 58.8898 23.925V25.5H62.0398V14.16Z" fill="#1570EF"/>
<path d="M63.21 25.5H66.36V19.065C66.36 17.6025 67.1925 16.635 68.4975 16.635C69.7125 16.635 70.4775 17.6025 70.4775 19.065V25.5H73.6275V19.065C73.6275 17.6025 74.46 16.635 75.765 16.635C76.98 16.635 77.7675 17.6025 77.7675 19.065V25.5H80.895V18.075C80.895 15.8025 79.2975 13.98 76.8225 13.98C75 13.98 73.5825 14.9475 73.0425 16.05C72.5025 14.7 71.355 13.98 69.5775 13.98C68.0475 13.98 66.9675 14.7225 66.36 15.7575V14.16H63.21V25.5Z" fill="#1570EF"/>
<path d="M81.9682 9.2325V12.54H85.2982V9.2325H81.9682ZM82.0582 25.5H85.2082V14.16H82.0582V25.5Z" fill="#1570EF"/>
<path d="M86.3824 25.5H89.5324V19.29C89.5324 17.8275 90.4999 16.77 91.8724 16.77C93.1774 16.77 94.0549 17.76 94.0549 19.1325V25.5H97.2049V18.435C97.2049 15.825 95.5399 13.98 92.9749 13.98C91.4224 13.98 90.1624 14.6325 89.5324 15.735V14.16H86.3824V25.5Z" fill="#1570EF"/>
<path d="M103.775 25.68C107.263 25.68 109.76 23.205 109.76 19.83C109.76 16.455 107.263 13.98 103.775 13.98C100.288 13.98 97.7901 16.455 97.7901 19.83C97.7901 23.205 100.288 25.68 103.775 25.68ZM103.775 22.98C102.088 22.98 100.94 21.6975 100.94 19.83C100.94 17.94 102.088 16.6575 103.775 16.6575C105.463 16.6575 106.61 17.94 106.61 19.83C106.61 21.6975 105.463 22.98 103.775 22.98Z" fill="#1570EF"/>
<path d="M121.168 14.16H118.018V20.37C118.018 21.81 117.051 22.89 115.678 22.89C114.396 22.89 113.496 21.9 113.496 20.5275V14.16H110.368V21.225C110.368 23.8125 112.033 25.68 114.576 25.68C116.128 25.68 117.388 25.005 118.018 23.925V25.5H121.168V14.16Z" fill="#1570EF"/>
<path d="M126.478 25.68C129.133 25.68 130.888 24.2625 130.888 22.1025C130.888 16.9725 124.678 19.605 124.678 17.2875C124.678 16.5675 125.286 16.185 126.163 16.185C127.018 16.185 127.896 16.7025 128.031 17.67H130.753C130.641 15.4425 128.796 13.98 126.073 13.98C123.756 13.98 122.023 15.3975 122.023 17.4C122.023 22.17 128.121 19.8975 128.121 22.215C128.121 22.845 127.446 23.3175 126.478 23.3175C125.308 23.3175 124.521 22.6875 124.408 21.675H121.708C121.821 24.1275 123.711 25.68 126.478 25.68Z" fill="#1570EF"/>
</svg>
